# Blender v2.79 (sub 0) OBJ File: 'cake.blend'
# www.blender.org
mtllib cake.mtl
o Cube.003_Cube.010
v -0.706293 -0.018190 -0.697000
v -0.706293 0.661810 -0.697000
v -0.712721 -0.018190 -0.704660
v -0.712721 0.661810 -0.704660
v -0.553084 -0.018190 -0.825557
v -0.553084 0.661810 -0.825557
v -0.559512 -0.018190 -0.833218
v -0.559512 0.661810 -0.833218
vn -0.7660 0.0000 0.6428
vn -0.6428 0.0000 -0.7660
vn 0.7660 0.0000 -0.6428
vn 0.6428 0.0000 0.7660
vn 0.0000 -1.0000 0.0000
vn 0.0000 1.0000 0.0000
usemtl Material.001
s off
f 1//1 2//1 4//1 3//1
f 3//2 4//2 8//2 7//2
f 7//3 8//3 6//3 5//3
f 5//4 6//4 2//4 1//4
f 3//5 7//5 5//5 1//5
f 8//6 4//6 2//6 6//6
o Cube.002_Cube.009
v -0.554861 -0.018190 -0.824794
v -0.554861 0.661810 -0.824794
v -0.559556 -0.018190 -0.833623
v -0.559556 0.661810 -0.833623
v -0.378272 -0.018190 -0.918688
v -0.378272 0.661810 -0.918688
v -0.382967 -0.018190 -0.927518
v -0.382967 0.661810 -0.927518
vn -0.8829 0.0000 0.4695
vn -0.4695 0.0000 -0.8829
vn 0.8829 0.0000 -0.4695
vn 0.4695 0.0000 0.8829
vn 0.0000 -1.0000 0.0000
vn 0.0000 1.0000 0.0000
usemtl Material.001
s off
f 9//7 10//7 12//7 11//7
f 11//8 12//8 16//8 15//8
f 15//9 16//9 14//9 13//9
f 13//10 14//10 10//10 9//10
f 11//11 15//11 13//11 9//11
f 16//12 12//12 10//12 14//12
o Cube.001_Cube.008
v -0.379031 -0.018190 -0.917447
v -0.379031 0.661810 -0.917447
v -0.381955 -0.018190 -0.927010
v -0.381955 0.661810 -0.927010
v -0.187770 -0.018190 -0.975921
v -0.187770 0.661810 -0.975921
v -0.190694 -0.018190 -0.985484
v -0.190694 0.661810 -0.985484
vn -0.9563 0.0000 0.2924
vn -0.2924 0.0000 -0.9563
vn 0.9563 0.0000 -0.2924
vn 0.2924 0.0000 0.9563
vn 0.0000 -1.0000 0.0000
vn 0.0000 1.0000 0.0000
usemtl Material.001
s off
f 17//13 18//13 20//13 19//13
f 19//14 20//14 24//14 23//14
f 23//15 24//15 22//15 21//15
f 21//16 22//16 18//16 17//16
f 19//17 23//17 21//17 17//17
f 24//18 20//18 18//18 22//18
o Cube_Cube.007
v -0.194122 -0.018190 -0.974394
v -0.194122 0.661810 -0.974394
v -0.194994 -0.018190 -0.984356
v -0.194994 0.661810 -0.984356
v 0.005117 -0.018190 -0.991825
v 0.005117 0.661810 -0.991825
v 0.004245 -0.018190 -1.001787
v 0.004245 0.661810 -1.001787
vn -0.9962 0.0000 0.0872
vn -0.0872 0.0000 -0.9962
vn 0.9962 0.0000 -0.0872
vn 0.0872 0.0000 0.9962
vn 0.0000 -1.0000 0.0000
vn 0.0000 1.0000 0.0000
usemtl Material.001
s off
f 25//19 26//19 28//19 27//19
f 27//20 28//20 32//20 31//20
f 31//21 32//21 30//21 29//21
f 29//22 30//22 26//22 25//22
f 27//23 31//23 29//23 25//23
f 32//24 28//24 26//24 30//24
o Cylinder.008_Cylinder.010
v 0.000000 0.620000 -1.000000
v 0.000000 0.660000 -1.000000
v -0.707106 0.620000 -0.707108
v -0.707106 0.660000 -0.707108
v -0.555569 0.620000 -0.831470
v -0.555569 0.660000 -0.831470
v -0.382682 0.620000 -0.923880
v -0.382682 0.660000 -0.923880
v -0.195089 0.620000 -0.980786
v -0.195089 0.660000 -0.980786
v 0.001928 0.620000 -0.999810
v 0.001928 0.660000 -0.999810
v 0.001928 0.660000 0.007015
v 0.001928 0.620000 0.007015
v -0.710614 0.660000 -0.702833
v -0.710614 0.620000 -0.702833
vn 0.0980 0.0000 -0.9952
vn -0.6344 0.0000 -0.7730
vn -0.4714 0.0000 -0.8819
vn -0.2903 0.0000 -0.9569
vn -0.0980 0.0000 -0.9952
vn 0.0000 -1.0000 0.0000
vn 0.0000 1.0000 0.0000
vn -0.7058 0.0000 0.7084
vn -0.7730 0.0000 -0.6344
vn 1.0000 0.0000 0.0000
usemtl Material.001
s off
f 33//25 34//25 44//25 43//25
f 35//26 36//26 38//26 37//26
f 37//27 38//27 40//27 39//27
f 39//28 40//28 42//28 41//28
f 41//29 42//29 34//29 33//29
f 33//30 43//30 46//30 48//30 35//30 37//30 39//30 41//30
f 47//31 45//31 44//31 34//31 42//31 40//31 38//31 36//31
f 47//32 48//32 46//32 45//32
f 48//33 47//33 36//33 35//33
f 45//34 46//34 43//34 44//34
o Cylinder.007_Cylinder.009
v 0.000000 0.520000 -1.000000
v 0.000000 0.620000 -1.000000
v -0.707106 0.520000 -0.707108
v -0.707106 0.620000 -0.707108
v -0.555569 0.520000 -0.831470
v -0.555569 0.620000 -0.831470
v -0.382682 0.520000 -0.923880
v -0.382682 0.620000 -0.923880
v -0.195089 0.520000 -0.980786
v -0.195089 0.620000 -0.980786
v 0.001928 0.520000 -0.999810
v 0.001928 0.620000 -0.999810
v 0.001928 0.620000 0.007015
v 0.001928 0.520000 0.007015
v -0.710614 0.620000 -0.702833
v -0.710614 0.520000 -0.702833
vn 0.0980 0.0000 -0.9952
vn -0.6344 0.0000 -0.7730
vn -0.4714 0.0000 -0.8819
vn -0.2903 0.0000 -0.9569
vn -0.0980 0.0000 -0.9952
vn 0.0000 -1.0000 -0.0000
vn 0.0000 1.0000 -0.0000
vn -0.7058 0.0000 0.7084
vn -0.7730 0.0000 -0.6344
vn 1.0000 0.0000 0.0000
usemtl Material.008
s off
f 49//35 50//35 60//35 59//35
f 51//36 52//36 54//36 53//36
f 53//37 54//37 56//37 55//37
f 55//38 56//38 58//38 57//38
f 57//39 58//39 50//39 49//39
f 49//40 59//40 62//40 64//40 51//40 53//40 55//40 57//40
f 63//41 61//41 60//41 50//41 58//41 56//41 54//41 52//41
f 63//42 64//42 62//42 61//42
f 64//43 63//43 52//43 51//43
f 61//44 62//44 59//44 60//44
o Cylinder.006_Cylinder.008
v 0.000000 0.420000 -1.000000
v 0.000000 0.520000 -1.000000
v -0.707106 0.420000 -0.707108
v -0.707106 0.520000 -0.707108
v -0.555569 0.420000 -0.831470
v -0.555569 0.520000 -0.831470
v -0.382682 0.420000 -0.923880
v -0.382682 0.520000 -0.923880
v -0.195089 0.420000 -0.980786
v -0.195089 0.520000 -0.980786
v 0.001928 0.420000 -0.999810
v 0.001928 0.520000 -0.999810
v 0.001928 0.520000 0.007015
v 0.001928 0.420000 0.007015
v -0.710614 0.520000 -0.702833
v -0.710614 0.420000 -0.702833
vn 0.0980 0.0000 -0.9952
vn -0.6344 0.0000 -0.7730
vn -0.4714 0.0000 -0.8819
vn -0.2903 0.0000 -0.9569
vn -0.0980 0.0000 -0.9952
vn 0.0000 -1.0000 0.0000
vn 0.0000 1.0000 0.0000
vn -0.7058 0.0000 0.7084
vn -0.7730 0.0000 -0.6344
vn 1.0000 0.0000 0.0000
usemtl Material.007
s off
f 65//45 66//45 76//45 75//45
f 67//46 68//46 70//46 69//46
f 69//47 70//47 72//47 71//47
f 71//48 72//48 74//48 73//48
f 73//49 74//49 66//49 65//49
f 65//50 75//50 78//50 80//50 67//50 69//50 71//50 73//50
f 79//51 77//51 76//51 66//51 74//51 72//51 70//51 68//51
f 79//52 80//52 78//52 77//52
f 80//53 79//53 68//53 67//53
f 77//54 78//54 75//54 76//54
o Cylinder.005_Cylinder.007
v 0.000000 0.360000 -1.000000
v 0.000000 0.420000 -1.000000
v -0.707106 0.360000 -0.707108
v -0.707106 0.420000 -0.707108
v -0.555569 0.360000 -0.831470
v -0.555569 0.420000 -0.831470
v -0.382682 0.360000 -0.923880
v -0.382682 0.420000 -0.923880
v -0.195089 0.360000 -0.980786
v -0.195089 0.420000 -0.980786
v 0.001928 0.360000 -0.999810
v 0.001928 0.420000 -0.999810
v 0.001928 0.420000 0.007015
v 0.001928 0.360000 0.007015
v -0.710614 0.420000 -0.702833
v -0.710614 0.360000 -0.702833
vn 0.0980 0.0000 -0.9952
vn -0.6344 0.0000 -0.7730
vn -0.4714 0.0000 -0.8819
vn -0.2903 0.0000 -0.9569
vn -0.0980 0.0000 -0.9952
vn 0.0000 -1.0000 0.0000
vn 0.0000 1.0000 -0.0000
vn -0.7058 0.0000 0.7084
vn -0.7730 0.0000 -0.6344
vn 1.0000 0.0000 0.0000
usemtl Material.006
s off
f 81//55 82//55 92//55 91//55
f 83//56 84//56 86//56 85//56
f 85//57 86//57 88//57 87//57
f 87//58 88//58 90//58 89//58
f 89//59 90//59 82//59 81//59
f 81//60 91//60 94//60 96//60 83//60 85//60 87//60 89//60
f 95//61 93//61 92//61 82//61 90//61 88//61 86//61 84//61
f 95//62 96//62 94//62 93//62
f 96//63 95//63 84//63 83//63
f 93//64 94//64 91//64 92//64
o Cylinder.004_Cylinder.006
v 0.000000 0.260000 -1.000000
v 0.000000 0.360000 -1.000000
v -0.707106 0.260000 -0.707108
v -0.707106 0.360000 -0.707108
v -0.555569 0.260000 -0.831470
v -0.555569 0.360000 -0.831470
v -0.382682 0.260000 -0.923880
v -0.382682 0.360000 -0.923880
v -0.195089 0.260000 -0.980786
v -0.195089 0.360000 -0.980786
v 0.001928 0.260000 -0.999810
v 0.001928 0.360000 -0.999810
v 0.001928 0.360000 0.007015
v 0.001928 0.260000 0.007015
v -0.710614 0.360000 -0.702833
v -0.710614 0.260000 -0.702833
vn 0.0980 0.0000 -0.9952
vn -0.6344 0.0000 -0.7730
vn -0.4714 0.0000 -0.8819
vn -0.2903 0.0000 -0.9569
vn -0.0980 0.0000 -0.9952
vn 0.0000 -1.0000 -0.0000
vn 0.0000 1.0000 0.0000
vn -0.7058 0.0000 0.7084
vn -0.7730 0.0000 -0.6344
vn 1.0000 0.0000 0.0000
usemtl Material.005
s off
f 97//65 98//65 108//65 107//65
f 99//66 100//66 102//66 101//66
f 101//67 102//67 104//67 103//67
f 103//68 104//68 106//68 105//68
f 105//69 106//69 98//69 97//69
f 97//70 107//70 110//70 112//70 99//70 101//70 103//70 105//70
f 111//71 109//71 108//71 98//71 106//71 104//71 102//71 100//71
f 111//72 112//72 110//72 109//72
f 112//73 111//73 100//73 99//73
f 109//74 110//74 107//74 108//74
o Cylinder.003_Cylinder.005
v 0.000000 0.180000 -1.000000
v 0.000000 0.260000 -1.000000
v -0.707106 0.180000 -0.707108
v -0.707106 0.260000 -0.707108
v -0.555569 0.180000 -0.831470
v -0.555569 0.260000 -0.831470
v -0.382682 0.180000 -0.923880
v -0.382682 0.260000 -0.923880
v -0.195089 0.180000 -0.980786
v -0.195089 0.260000 -0.980786
v 0.001928 0.180000 -0.999810
v 0.001928 0.260000 -0.999810
v 0.001928 0.260000 0.007015
v 0.001928 0.180000 0.007015
v -0.710614 0.260000 -0.702833
v -0.710614 0.180000 -0.702833
vn 0.0980 0.0000 -0.9952
vn -0.6344 0.0000 -0.7730
vn -0.4714 0.0000 -0.8819
vn -0.2903 0.0000 -0.9569
vn -0.0980 0.0000 -0.9952
vn 0.0000 -1.0000 0.0000
vn 0.0000 1.0000 0.0000
vn -0.7058 0.0000 0.7084
vn -0.7730 0.0000 -0.6344
vn 1.0000 0.0000 0.0000
usemtl Material.004
s off
f 113//75 114//75 124//75 123//75
f 115//76 116//76 118//76 117//76
f 117//77 118//77 120//77 119//77
f 119//78 120//78 122//78 121//78
f 121//79 122//79 114//79 113//79
f 113//80 123//80 126//80 128//80 115//80 117//80 119//80 121//80
f 127//81 125//81 124//81 114//81 122//81 120//81 118//81 116//81
f 127//82 128//82 126//82 125//82
f 128//83 127//83 116//83 115//83
f 125//84 126//84 123//84 124//84
o Cylinder.002_Cylinder.004
v 0.000000 0.080000 -1.000000
v 0.000000 0.180000 -1.000000
v -0.707106 0.080000 -0.707108
v -0.707106 0.180000 -0.707108
v -0.555569 0.080000 -0.831470
v -0.555569 0.180000 -0.831470
v -0.382682 0.080000 -0.923880
v -0.382682 0.180000 -0.923880
v -0.195089 0.080000 -0.980786
v -0.195089 0.180000 -0.980786
v 0.001928 0.080000 -0.999810
v 0.001928 0.180000 -0.999810
v 0.001928 0.180000 0.007015
v 0.001928 0.080000 0.007015
v -0.710614 0.180000 -0.702833
v -0.710614 0.080000 -0.702833
vn 0.0980 0.0000 -0.9952
vn -0.6344 0.0000 -0.7730
vn -0.4714 0.0000 -0.8819
vn -0.2903 0.0000 -0.9569
vn -0.0980 0.0000 -0.9952
vn 0.0000 -1.0000 -0.0000
vn 0.0000 1.0000 0.0000
vn -0.7058 0.0000 0.7084
vn -0.7730 0.0000 -0.6344
vn 1.0000 0.0000 0.0000
usemtl Material.003
s off
f 129//85 130//85 140//85 139//85
f 131//86 132//86 134//86 133//86
f 133//87 134//87 136//87 135//87
f 135//88 136//88 138//88 137//88
f 137//89 138//89 130//89 129//89
f 129//90 139//90 142//90 144//90 131//90 133//90 135//90 137//90
f 143//91 141//91 140//91 130//91 138//91 136//91 134//91 132//91
f 143//92 144//92 142//92 141//92
f 144//93 143//93 132//93 131//93
f 141//94 142//94 139//94 140//94
o Cylinder.001_Cylinder.003
v 0.000000 0.020000 -1.000000
v 0.000000 0.080000 -1.000000
v -0.707106 0.020000 -0.707108
v -0.707106 0.080000 -0.707108
v -0.555569 0.020000 -0.831470
v -0.555569 0.080000 -0.831470
v -0.382682 0.020000 -0.923880
v -0.382682 0.080000 -0.923880
v -0.195089 0.020000 -0.980786
v -0.195089 0.080000 -0.980786
v 0.001928 0.020000 -0.999810
v 0.001928 0.080000 -0.999810
v 0.001928 0.080000 0.007015
v 0.001928 0.020000 0.007015
v -0.710614 0.080000 -0.702833
v -0.710614 0.020000 -0.702833
vn 0.0980 0.0000 -0.9952
vn -0.6344 0.0000 -0.7730
vn -0.4714 0.0000 -0.8819
vn -0.2903 0.0000 -0.9569
vn -0.0980 0.0000 -0.9952
vn 0.0000 -1.0000 0.0000
vn 0.0000 1.0000 0.0000
vn -0.7058 0.0000 0.7084
vn -0.7730 0.0000 -0.6344
vn 1.0000 0.0000 0.0000
usemtl Material.002
s off
f 145//95 146//95 156//95 155//95
f 147//96 148//96 150//96 149//96
f 149//97 150//97 152//97 151//97
f 151//98 152//98 154//98 153//98
f 153//99 154//99 146//99 145//99
f 145//100 155//100 158//100 160//100 147//100 149//100 151//100 153//100
f 159//101 157//101 156//101 146//101 154//101 152//101 150//101 148//101
f 159//102 160//102 158//102 157//102
f 160//103 159//103 148//103 147//103
f 157//104 158//104 155//104 156//104
o Cylinder_Cylinder.002
v 0.000000 -0.020000 -1.000000
v 0.000000 0.020000 -1.000000
v -0.707106 -0.020000 -0.707108
v -0.707106 0.020000 -0.707108
v -0.555569 -0.020000 -0.831470
v -0.555569 0.020000 -0.831470
v -0.382682 -0.020000 -0.923880
v -0.382682 0.020000 -0.923880
v -0.195089 -0.020000 -0.980786
v -0.195089 0.020000 -0.980786
v 0.001928 -0.020000 -0.999810
v 0.001928 0.020000 -0.999810
v 0.001928 0.020000 0.007015
v 0.001928 -0.020000 0.007015
v -0.710614 0.020000 -0.702833
v -0.710614 -0.020000 -0.702833
vn 0.0980 0.0000 -0.9952
vn -0.6344 0.0000 -0.7730
vn -0.4714 0.0000 -0.8819
vn -0.2903 0.0000 -0.9569
vn -0.0980 0.0000 -0.9952
vn 0.0000 -1.0000 0.0000
vn 0.0000 1.0000 0.0000
vn -0.7058 0.0000 0.7084
vn -0.7730 0.0000 -0.6344
vn 1.0000 0.0000 0.0000
usemtl Material.001
s off
f 161//105 162//105 172//105 171//105
f 163//106 164//106 166//106 165//106
f 165//107 166//107 168//107 167//107
f 167//108 168//108 170//108 169//108
f 169//109 170//109 162//109 161//109
f 161//110 171//110 174//110 176//110 163//110 165//110 167//110 169//110
f 175//111 173//111 172//111 162//111 170//111 168//111 166//111 164//111
f 175//112 176//112 174//112 173//112
f 176//113 175//113 164//113 163//113
f 173//114 174//114 171//114 172//114
