# Blender v2.79 (sub 0) OBJ File: 'stonColor.blend'
# www.blender.org
mtllib stone006.mtl
o Landscape
v -0.012414 -0.551912 0.036815
v -0.093850 -0.547688 0.047506
v -0.098524 -0.559458 0.119700
v -0.297171 -0.019200 0.324661
v -0.067472 -0.542129 0.075715
v -0.358820 -0.004895 0.214640
v -0.055267 -0.525089 0.036175
v -0.357855 -0.001567 0.071447
v -0.147216 -0.498050 -0.002121
v -0.357143 0.000000 -0.071429
v -0.125082 -0.502624 0.006157
v -0.354653 -0.011072 -0.205368
v -0.071469 -0.520543 -0.033388
v -0.029524 -0.388879 0.059812
v -0.024917 -0.399304 -0.008386
v -0.162267 -0.419124 0.010549
v -0.060250 -0.479076 0.136691
v -0.214286 -0.000000 0.357143
v -0.214286 -0.000000 0.214286
v -0.214286 -0.000000 0.071429
v -0.214286 0.000000 -0.071429
v -0.218276 -0.010746 -0.216186
v -0.153448 -0.353551 0.008770
v -0.033371 -0.448712 -0.059627
v -0.023091 -0.386555 0.109613
v -0.071428 -0.000007 0.357139
v -0.071429 -0.000000 0.214286
v -0.071429 -0.000000 0.071429
v -0.071429 0.000000 -0.071429
v -0.068222 -0.006689 -0.208184
v -0.018562 -0.180419 -0.120402
v -0.034900 -0.367690 -0.031720
v 0.023091 -0.386555 0.109613
v 0.071428 -0.000007 0.357139
v 0.071429 -0.000000 0.214286
v 0.071429 -0.000000 0.071429
v 0.071429 0.000000 -0.071429
v 0.068222 -0.006689 -0.208184
v 0.018562 -0.180419 -0.120402
v 0.034900 -0.367690 -0.031720
v 0.060250 -0.479076 0.136691
v 0.214286 -0.000000 0.357143
v 0.214286 -0.000000 0.214286
v 0.214286 -0.000000 0.071429
v 0.214286 0.000000 -0.071429
v 0.218276 -0.010746 -0.216186
v 0.153448 -0.353551 0.008770
v 0.033371 -0.448712 -0.059627
v 0.098524 -0.559458 0.119700
v 0.297171 -0.019200 0.324661
v 0.358820 -0.004895 0.214640
v 0.357855 -0.001567 0.071447
v 0.357143 0.000000 -0.071429
v 0.354653 -0.011072 -0.205368
v 0.029524 -0.388879 0.059812
v 0.162267 -0.419124 0.010549
v 0.093850 -0.547688 0.047506
v 0.012414 -0.551912 0.036815
v 0.067472 -0.542129 0.075715
v 0.055267 -0.525089 0.036175
v 0.147216 -0.498050 -0.002121
v 0.125082 -0.502624 0.006157
v 0.071469 -0.520543 -0.033388
v 0.024917 -0.399304 -0.008386
vn -0.9469 -0.2701 -0.1746
vn -0.6944 0.1061 -0.7117
vn -0.9140 -0.0878 -0.3961
vn -0.4175 0.3165 0.8518
vn -0.7322 -0.5661 0.3787
vn -0.8132 0.4641 0.3513
vn -0.8857 -0.4621 0.0444
vn -0.8343 0.5386 0.1176
vn -0.8926 -0.4329 0.1260
vn -0.8212 0.5671 0.0633
vn 0.0977 -0.2219 -0.9702
vn -0.8207 0.2328 -0.5218
vn 0.2837 -0.2583 -0.9235
vn -0.3048 -0.4665 -0.8304
vn -0.7321 -0.6790 0.0543
vn -0.9873 -0.1588 -0.0044
vn 0.0619 -0.4015 0.9138
vn 0.0691 0.5411 0.8381
vn -0.0348 0.9991 0.0240
vn -0.0070 1.0000 0.0043
vn -0.0055 0.9994 -0.0335
vn -0.3854 0.4287 -0.8171
vn -0.5958 -0.4363 -0.6743
vn -0.6572 -0.0995 -0.7472
vn 0.1891 -0.4615 0.8668
vn 0.1713 0.5282 0.8316
vn 0.0000 1.0000 0.0000
vn -0.0031 0.9996 -0.0277
vn -0.0257 0.4920 -0.8702
vn -0.0413 -0.4541 -0.8900
vn -0.2112 -0.2881 -0.9340
vn -0.1891 -0.4615 0.8668
vn -0.1713 0.5282 0.8316
vn 0.0031 0.9996 -0.0277
vn 0.0257 0.4920 -0.8702
vn 0.0413 -0.4541 -0.8900
vn 0.2112 -0.2881 -0.9340
vn -0.0619 -0.4015 0.9138
vn -0.0691 0.5411 0.8381
vn 0.0348 0.9991 0.0240
vn 0.0070 1.0000 0.0043
vn 0.0055 0.9994 -0.0335
vn 0.3854 0.4287 -0.8171
vn 0.5958 -0.4363 -0.6743
vn 0.6572 -0.0995 -0.7472
vn 0.9140 -0.0878 -0.3961
vn 0.4175 0.3165 0.8518
vn 0.8132 0.4641 0.3513
vn 0.8343 0.5386 0.1176
vn 0.8212 0.5671 0.0633
vn 0.8207 0.2328 -0.5218
vn 0.3048 -0.4665 -0.8304
vn 0.9873 -0.1588 -0.0044
vn 0.6944 0.1061 -0.7117
vn 0.9469 -0.2701 -0.1746
vn 0.7322 -0.5661 0.3787
vn 0.8857 -0.4621 0.0444
vn 0.8926 -0.4329 0.1260
vn -0.0977 -0.2219 -0.9702
vn -0.2837 -0.2583 -0.9235
vn 0.7321 -0.6790 0.0543
usemtl stone
s 1
f 1//1 2//2 3//3 4//4
f 5//5 1//1 4//4 6//6
f 7//7 5//5 6//6 8//8
f 9//9 7//7 8//8 10//10
f 11//11 9//9 10//10 12//12
f 13//13 11//11 12//12 14//14
f 15//15 13//13 14//14 16//16
f 4//4 3//3 17//17 18//18
f 6//6 4//4 18//18 19//19
f 8//8 6//6 19//19 20//20
f 10//10 8//8 20//20 21//21
f 12//12 10//10 21//21 22//22
f 14//14 12//12 22//22 23//23
f 16//16 14//14 23//23 24//24
f 18//18 17//17 25//25 26//26
f 19//19 18//18 26//26 27//27
f 20//20 19//19 27//27 28//27
f 21//21 20//20 28//27 29//28
f 22//22 21//21 29//28 30//29
f 23//23 22//22 30//29 31//30
f 24//24 23//23 31//30 32//31
f 26//26 25//25 33//32 34//33
f 27//27 26//26 34//33 35//27
f 28//27 27//27 35//27 36//27
f 29//28 28//27 36//27 37//34
f 30//29 29//28 37//34 38//35
f 31//30 30//29 38//35 39//36
f 32//31 31//30 39//36 40//37
f 34//33 33//32 41//38 42//39
f 35//27 34//33 42//39 43//40
f 36//27 35//27 43//40 44//41
f 37//34 36//27 44//41 45//42
f 38//35 37//34 45//42 46//43
f 39//36 38//35 46//43 47//44
f 40//37 39//36 47//44 48//45
f 42//39 41//38 49//46 50//47
f 43//40 42//39 50//47 51//48
f 44//41 43//40 51//48 52//49
f 45//42 44//41 52//49 53//50
f 46//43 45//42 53//50 54//51
f 47//44 46//43 54//51 55//52
f 48//45 47//44 55//52 56//53
f 50//47 49//46 57//54 58//55
f 51//48 50//47 58//55 59//56
f 52//49 51//48 59//56 60//57
f 53//50 52//49 60//57 61//58
f 54//51 53//50 61//58 62//59
f 55//52 54//51 62//59 63//60
f 56//53 55//52 63//60 64//61
