# Blender v2.79 (sub 0) OBJ File: 'stonColor.blend'
# www.blender.org
mtllib stone007.mtl
o Landscape.003
v -0.012414 -0.551912 0.036815
v -0.118350 -0.546985 0.090910
v -0.037971 -0.557603 0.090212
v -0.297171 -0.019200 0.324661
v -0.063777 -0.542016 0.073915
v -0.358820 -0.004895 0.214640
v -0.051609 -0.527896 0.044114
v -0.357855 -0.001567 0.071447
v -0.147216 -0.498050 -0.002121
v -0.335363 -0.049355 -0.034883
v -0.125082 -0.502624 0.006157
v -0.299403 -0.113489 -0.137210
v -0.058423 -0.546082 0.040749
v -0.001789 -0.382043 0.083180
v 0.000518 -0.458176 0.049682
v -0.008591 -0.474943 0.065852
v -0.041070 -0.468667 0.196425
v -0.214286 -0.000000 0.357143
v -0.214286 -0.000000 0.214286
v -0.214286 -0.000000 0.071429
v -0.209585 -0.021459 -0.065261
v -0.198893 -0.047786 -0.205372
v -0.153448 -0.353551 0.008770
v 0.002408 -0.485615 0.045076
v -0.002597 -0.349494 0.113381
v -0.071428 -0.000007 0.357139
v -0.071429 -0.000000 0.214286
v -0.071429 -0.000000 0.071429
v -0.069313 -0.012614 -0.071175
v -0.064513 -0.029222 -0.204207
v -0.018562 -0.180419 -0.120402
v -0.007886 -0.372078 -0.006289
v 0.002597 -0.349494 0.113381
v 0.071428 -0.000007 0.357139
v 0.071429 -0.000000 0.214286
v 0.071429 -0.000000 0.071429
v 0.069313 -0.012614 -0.071175
v 0.064513 -0.029222 -0.204207
v 0.018562 -0.180419 -0.120402
v 0.007886 -0.372078 -0.006289
v 0.041070 -0.468667 0.196425
v 0.214286 -0.000000 0.357143
v 0.214286 -0.000000 0.214286
v 0.214286 -0.000000 0.071429
v 0.209585 -0.021459 -0.065261
v 0.198893 -0.047786 -0.205372
v 0.153448 -0.353551 0.008770
v -0.002408 -0.485615 0.045076
v 0.037971 -0.557603 0.090212
v 0.297171 -0.019200 0.324661
v 0.358820 -0.004895 0.214640
v 0.357855 -0.001567 0.071447
v 0.335363 -0.049355 -0.034883
v 0.299403 -0.113489 -0.137210
v 0.001789 -0.382043 0.083180
v 0.008591 -0.474943 0.065852
v 0.118350 -0.546985 0.090910
v 0.012414 -0.551912 0.036815
v 0.063777 -0.542016 0.073915
v 0.051609 -0.527896 0.044114
v 0.147216 -0.498050 -0.002121
v 0.125082 -0.502624 0.006157
v 0.058423 -0.546082 0.040749
v -0.000518 -0.458176 0.049682
vn -0.9177 -0.3903 0.0734
vn -0.8922 -0.1081 -0.4385
vn -0.9491 -0.3135 -0.0314
vn -0.6438 0.2597 0.7198
vn -0.7379 -0.5678 0.3649
vn -0.8202 0.4588 0.3417
vn -0.8806 -0.4683 0.0723
vn -0.8244 0.5652 -0.0324
vn -0.8901 -0.4412 0.1143
vn -0.9069 0.4081 -0.1053
vn 0.2644 -0.1869 -0.9461
vn -0.9152 -0.0422 -0.4008
vn 0.4614 0.0415 -0.8862
vn -0.3547 -0.7490 -0.5596
vn -0.1086 0.3976 -0.9111
vn -0.8522 -0.1734 0.4936
vn -0.2376 -0.4860 0.8410
vn -0.1126 0.6053 0.7880
vn -0.0348 0.9991 0.0240
vn -0.0490 0.9937 -0.1007
vn -0.2105 0.9451 -0.2498
vn -0.5482 0.3886 -0.7406
vn -0.6071 -0.6529 -0.4529
vn -0.7087 -0.6834 0.1754
vn 0.2902 -0.4230 0.8584
vn 0.2767 0.5750 0.7699
vn 0.0000 1.0000 0.0000
vn -0.0085 0.9986 -0.0526
vn -0.0345 0.9917 -0.1240
vn -0.0503 0.4556 -0.8888
vn -0.0178 -0.5145 -0.8573
vn -0.0983 -0.4918 -0.8651
vn -0.2902 -0.4230 0.8584
vn -0.2767 0.5750 0.7699
vn 0.0085 0.9986 -0.0526
vn 0.0345 0.9917 -0.1240
vn 0.0503 0.4556 -0.8888
vn 0.0178 -0.5145 -0.8573
vn 0.0983 -0.4918 -0.8651
vn 0.2376 -0.4860 0.8410
vn 0.1126 0.6053 0.7880
vn 0.0348 0.9991 0.0240
vn 0.0490 0.9937 -0.1007
vn 0.2105 0.9451 -0.2498
vn 0.5482 0.3886 -0.7406
vn 0.6071 -0.6529 -0.4529
vn 0.7087 -0.6834 0.1754
vn 0.9491 -0.3135 -0.0314
vn 0.6438 0.2597 0.7198
vn 0.8202 0.4588 0.3417
vn 0.8244 0.5652 -0.0324
vn 0.9069 0.4081 -0.1053
vn 0.9152 -0.0422 -0.4008
vn 0.3547 -0.7490 -0.5596
vn 0.8522 -0.1734 0.4936
vn 0.8922 -0.1081 -0.4385
vn 0.9177 -0.3903 0.0734
vn 0.7379 -0.5678 0.3649
vn 0.8806 -0.4683 0.0723
vn 0.8901 -0.4412 0.1143
vn -0.2644 -0.1869 -0.9461
vn -0.4614 0.0415 -0.8862
vn 0.1086 0.3976 -0.9111
usemtl stone
s 1
f 1//1 2//2 3//3 4//4
f 5//5 1//1 4//4 6//6
f 7//7 5//5 6//6 8//8
f 9//9 7//7 8//8 10//10
f 11//11 9//9 10//10 12//12
f 13//13 11//11 12//12 14//14
f 15//15 13//13 14//14 16//16
f 4//4 3//3 17//17 18//18
f 6//6 4//4 18//18 19//19
f 8//8 6//6 19//19 20//20
f 10//10 8//8 20//20 21//21
f 12//12 10//10 21//21 22//22
f 14//14 12//12 22//22 23//23
f 16//16 14//14 23//23 24//24
f 18//18 17//17 25//25 26//26
f 19//19 18//18 26//26 27//27
f 20//20 19//19 27//27 28//28
f 21//21 20//20 28//28 29//29
f 22//22 21//21 29//29 30//30
f 23//23 22//22 30//30 31//31
f 24//24 23//23 31//31 32//32
f 26//26 25//25 33//33 34//34
f 27//27 26//26 34//34 35//27
f 28//28 27//27 35//27 36//35
f 29//29 28//28 36//35 37//36
f 30//30 29//29 37//36 38//37
f 31//31 30//30 38//37 39//38
f 32//32 31//31 39//38 40//39
f 34//34 33//33 41//40 42//41
f 35//27 34//34 42//41 43//42
f 36//35 35//27 43//42 44//43
f 37//36 36//35 44//43 45//44
f 38//37 37//36 45//44 46//45
f 39//38 38//37 46//45 47//46
f 40//39 39//38 47//46 48//47
f 42//41 41//40 49//48 50//49
f 43//42 42//41 50//49 51//50
f 44//43 43//42 51//50 52//51
f 45//44 44//43 52//51 53//52
f 46//45 45//44 53//52 54//53
f 47//46 46//45 54//53 55//54
f 48//47 47//46 55//54 56//55
f 50//49 49//48 57//56 58//57
f 51//50 50//49 58//57 59//58
f 52//51 51//50 59//58 60//59
f 53//52 52//51 60//59 61//60
f 54//53 53//52 61//60 62//61
f 55//54 54//53 62//61 63//62
f 56//55 55//54 63//62 64//63
