# Blender v2.79 (sub 0) OBJ File: 'stoneColoe.blend'
# www.blender.org
mtllib stone0014.mtl
o Landscape.001
v -0.036321 -0.453409 0.073437
v 0.009825 -0.493291 0.083023
v 0.003569 -0.426985 0.097500
v -0.033037 -0.390363 0.083786
v -0.067040 -0.426749 0.059090
v -0.071608 -0.325013 0.085305
v -0.074538 -0.425150 0.057932
v -0.111576 -0.252393 0.087028
v -0.076369 -0.432865 0.061199
v -0.143708 -0.212530 0.045429
v -0.071732 -0.452089 0.068001
v -0.139855 -0.241238 -0.001663
v -0.057026 -0.450884 0.033933
v -0.105078 -0.269937 -0.034686
v 0.007390 -0.513327 0.018470
v -0.039930 -0.356941 -0.009142
v -0.002381 -0.360988 0.112243
v -0.019338 -0.348607 0.090078
v -0.065941 -0.238857 0.105346
v -0.191658 -0.024030 0.141653
v -0.202111 -0.021980 0.059242
v -0.236413 -0.045906 -0.088060
v -0.183495 -0.030715 -0.161878
v -0.019384 -0.411662 -0.032872
v 0.000137 -0.298306 0.144012
v 0.000088 -0.331167 0.100010
v -0.005516 -0.197335 0.133628
v -0.087405 -0.002231 0.246405
v -0.044104 -0.016482 0.191400
v -0.074729 -0.056211 -0.190073
v -0.074769 -0.032970 -0.229686
v 0.002311 -0.278565 -0.103736
v 0.001274 -0.298307 0.144347
v 0.003876 -0.329309 0.100357
v 0.012726 -0.195429 0.134420
v 0.088121 -0.003183 0.244329
v 0.045514 -0.016482 0.191400
v 0.076139 -0.056211 -0.190073
v 0.076253 -0.032928 -0.229727
v -0.000900 -0.278566 -0.103736
v 0.004867 -0.358454 0.113214
v 0.007059 -0.323581 0.101402
v 0.069581 -0.211489 0.126538
v 0.193048 -0.023753 0.141787
v 0.205076 -0.020497 0.057817
v 0.238046 -0.045619 -0.088063
v 0.184878 -0.030671 -0.161845
v 0.020794 -0.411662 -0.032872
v -0.001637 -0.425699 0.098054
v 0.034430 -0.373157 0.092160
v 0.072323 -0.314242 0.092584
v 0.112954 -0.251028 0.088013
v 0.145529 -0.212336 0.045038
v 0.141423 -0.241152 -0.001771
v 0.106520 -0.269905 -0.034705
v 0.041340 -0.356941 -0.009142
v -0.008414 -0.493291 0.083023
v 0.037731 -0.453410 0.073436
v 0.068451 -0.426749 0.059090
v 0.075949 -0.425150 0.057932
v 0.077779 -0.432865 0.061199
v 0.073142 -0.452089 0.068001
v 0.058436 -0.450884 0.033933
v -0.005980 -0.513327 0.018470
vn -0.4208 -0.1864 0.8878
vn -0.4176 -0.1805 0.8905
vn -0.4740 -0.1620 0.8655
vn -0.4568 -0.1663 0.8739
vn -0.4011 -0.2137 0.8908
vn -0.2826 -0.2143 0.9350
vn -0.6414 -0.2464 0.7265
vn -0.6153 -0.2960 0.7306
vn -0.9419 -0.2712 0.1982
vn -0.9198 -0.3127 0.2371
vn -0.8242 -0.3909 -0.4097
vn -0.8962 -0.4143 -0.1585
vn -0.5669 -0.3864 -0.7275
vn -0.7753 -0.4697 -0.4223
vn -0.3280 -0.3438 -0.8799
vn -0.6040 -0.4510 -0.6571
vn -0.8342 0.0163 0.5513
vn -0.4907 -0.1223 0.8627
vn -0.3056 -0.3159 0.8982
vn -0.7459 0.4452 0.4955
vn -0.7705 0.6327 0.0778
vn -0.8868 0.3820 -0.2600
vn -0.5269 0.7075 -0.4710
vn -0.6577 -0.5142 -0.5504
vn -0.4278 0.7628 -0.4849
vn -0.7145 0.1151 0.6901
vn -0.1741 -0.4039 0.8981
vn -0.2837 0.4893 0.8246
vn -0.0011 0.9880 -0.1546
vn 0.1124 0.9651 0.2366
vn -0.1671 0.6321 -0.7566
vn -0.2598 -0.4734 -0.8417
vn 0.1279 0.8231 -0.5534
vn 0.2931 0.4984 0.8159
vn 0.1215 -0.3940 0.9110
vn 0.2826 0.4906 0.8243
vn 0.0022 0.9884 -0.1516
vn -0.1136 0.9652 0.2357
vn 0.1667 0.6319 -0.7569
vn 0.2601 -0.4735 -0.8415
vn 0.7093 -0.0421 0.7037
vn 0.2655 -0.2137 0.9401
vn 0.3373 -0.3535 0.8725
vn 0.7431 0.4464 0.4986
vn 0.7683 0.6349 0.0813
vn 0.8857 0.3822 -0.2637
vn 0.5257 0.7074 -0.4725
vn 0.6577 -0.5142 -0.5505
vn 0.4354 -0.1871 0.8806
vn 0.4400 -0.1834 0.8791
vn 0.3393 -0.2570 0.9049
vn 0.6782 -0.3077 0.6674
vn 0.9186 -0.3140 0.2398
vn 0.8955 -0.4151 -0.1608
vn 0.7749 -0.4698 -0.4230
vn 0.6038 -0.4509 -0.6573
vn 0.4062 -0.2125 0.8887
vn 0.4253 -0.2193 0.8781
vn 0.4562 -0.2412 0.8566
vn 0.6729 -0.2517 0.6956
vn 0.9420 -0.2726 0.1957
vn 0.8235 -0.3915 -0.4106
vn 0.5664 -0.3866 -0.7278
vn 0.3280 -0.3438 -0.8799
usemtl stone
s 1
f 1//1 2//2 3//3 4//4
f 5//5 1//1 4//4 6//6
f 7//7 5//5 6//6 8//8
f 9//9 7//7 8//8 10//10
f 11//11 9//9 10//10 12//12
f 13//13 11//11 12//12 14//14
f 15//15 13//13 14//14 16//16
f 4//4 3//3 17//17 18//18
f 6//6 4//4 18//18 19//19
f 8//8 6//6 19//19 20//20
f 10//10 8//8 20//20 21//21
f 12//12 10//10 21//21 22//22
f 14//14 12//12 22//22 23//23
f 16//16 14//14 23//23 24//24
f 18//18 17//17 25//25 26//26
f 19//19 18//18 26//26 27//27
f 20//20 19//19 27//27 28//28
f 21//21 20//20 28//28 29//29
f 22//22 21//21 29//29 30//30
f 23//23 22//22 30//30 31//31
f 24//24 23//23 31//31 32//32
f 26//26 25//25 33//33 34//34
f 27//27 26//26 34//34 35//35
f 28//28 27//27 35//35 36//36
f 29//29 28//28 36//36 37//37
f 30//30 29//29 37//37 38//38
f 31//31 30//30 38//38 39//39
f 32//32 31//31 39//39 40//40
f 34//34 33//33 41//41 42//42
f 35//35 34//34 42//42 43//43
f 36//36 35//35 43//43 44//44
f 37//37 36//36 44//44 45//45
f 38//38 37//37 45//45 46//46
f 39//39 38//38 46//46 47//47
f 40//40 39//39 47//47 48//48
f 42//42 41//41 49//49 50//50
f 43//43 42//42 50//50 51//51
f 44//44 43//43 51//51 52//52
f 45//45 44//44 52//52 53//53
f 46//46 45//45 53//53 54//54
f 47//47 46//46 54//54 55//55
f 48//48 47//47 55//55 56//56
f 50//50 49//49 57//57 58//58
f 51//51 50//50 58//58 59//59
f 52//52 51//51 59//59 60//60
f 53//53 52//52 60//60 61//61
f 54//54 53//53 61//61 62//62
f 55//55 54//54 62//62 63//63
f 56//56 55//55 63//63 64//64
