# Blender v2.79 (sub 0) OBJ File: 'stone.blend'
# www.blender.org
mtllib stone005.mtl
o Landscape.004
v 0.009825 -0.493291 0.083023
v -0.029103 -0.459606 0.071252
v -0.066858 -0.426941 0.059178
v -0.074538 -0.425150 0.057932
v -0.076205 -0.432949 0.061037
v -0.062661 -0.446004 0.047660
v -0.047994 -0.459899 0.033897
v 0.007390 -0.513327 0.018470
v 0.003578 -0.426988 0.097516
v -0.032625 -0.386923 0.086574
v -0.071608 -0.325013 0.085305
v -0.111726 -0.252297 0.086951
v -0.143601 -0.212812 0.045283
v -0.137412 -0.246258 -0.003261
v -0.103307 -0.272106 -0.034939
v -0.039930 -0.356941 -0.009142
v 0.001707 -0.362588 0.120461
v -0.024459 -0.324045 0.104530
v -0.071788 -0.221999 0.114018
v -0.191658 -0.024030 0.141653
v -0.202111 -0.021980 0.059242
v -0.236413 -0.045906 -0.088060
v -0.183495 -0.030715 -0.161878
v -0.021911 -0.345215 -0.043504
v 0.000137 -0.298306 0.144012
v -0.005142 -0.271872 0.128274
v -0.005516 -0.197335 0.133628
v -0.087405 -0.002231 0.246405
v -0.072553 -0.025814 0.043227
v -0.076314 -0.037372 -0.102970
v -0.074769 -0.032970 -0.229686
v -0.004609 -0.325315 -0.077779
v 0.001274 -0.298307 0.144347
v 0.009264 -0.267720 0.130986
v 0.012775 -0.195385 0.134461
v 0.088121 -0.003183 0.244329
v 0.074305 -0.025739 0.042359
v 0.078133 -0.039614 -0.113751
v 0.076253 -0.032928 -0.229727
v 0.004907 -0.325042 -0.077930
v 0.000009 -0.361869 0.120899
v 0.028200 -0.305232 0.116936
v 0.076373 -0.209709 0.121597
v 0.193048 -0.023753 0.141787
v 0.205076 -0.020497 0.057817
v 0.238046 -0.045619 -0.088063
v 0.184878 -0.030671 -0.161845
v 0.022798 -0.344964 -0.043595
v -0.001657 -0.425714 0.098085
v 0.034230 -0.374463 0.094176
v 0.072323 -0.314242 0.092584
v 0.113204 -0.250824 0.087906
v 0.145413 -0.212645 0.044879
v 0.139023 -0.246083 -0.003341
v 0.104763 -0.272052 -0.034953
v 0.041340 -0.356941 -0.009142
v -0.008414 -0.493291 0.083023
v 0.030513 -0.459606 0.071252
v 0.068268 -0.426941 0.059178
v 0.075949 -0.425150 0.057932
v 0.077615 -0.432949 0.061037
v 0.064071 -0.446004 0.047660
v 0.049405 -0.459899 0.033897
v -0.005980 -0.513327 0.018470
vn -0.4598 -0.2198 0.8603
vn -0.4711 -0.2165 0.8551
vn -0.5081 -0.2171 0.8334
vn -0.4905 -0.2246 0.8419
vn -0.4053 -0.2310 0.8845
vn -0.3682 -0.2419 0.8977
vn -0.6454 -0.2472 0.7227
vn -0.6465 -0.3042 0.6996
vn -0.9458 -0.3186 0.0627
vn -0.9228 -0.3248 0.2072
vn -0.8469 -0.3932 -0.3580
vn -0.8762 -0.4274 -0.2225
vn -0.4818 -0.3788 -0.7901
vn -0.6456 -0.4919 -0.5841
vn -0.3228 -0.3434 -0.8820
vn -0.4064 -0.4163 -0.8133
vn -0.6673 -0.1888 0.7204
vn -0.5518 -0.1914 0.8117
vn -0.3729 -0.3215 0.8704
vn -0.7527 0.4346 0.4946
vn -0.7883 0.6087 0.0898
vn -0.8988 0.3533 -0.2595
vn -0.6424 0.5061 -0.5754
vn -0.5336 -0.5278 -0.6608
vn -0.6240 0.1565 0.7656
vn -0.3740 0.0096 0.9274
vn -0.2036 -0.3294 0.9220
vn -0.2720 0.4751 0.8368
vn -0.0166 0.9950 -0.0985
vn -0.0018 0.9999 -0.0122
vn -0.2928 0.4674 -0.8341
vn -0.2950 -0.5037 -0.8119
vn 0.3416 0.1240 0.9316
vn 0.1290 -0.0070 0.9916
vn 0.1423 -0.3275 0.9340
vn 0.2749 0.4770 0.8348
vn 0.0156 0.9950 -0.0990
vn -0.0000 1.0000 -0.0029
vn 0.2975 0.4695 -0.8313
vn 0.2886 -0.5039 -0.8141
vn 0.5651 -0.2373 0.7902
vn 0.5079 -0.2001 0.8379
vn 0.3894 -0.3242 0.8621
vn 0.7486 0.4369 0.4987
vn 0.7851 0.6126 0.0918
vn 0.8961 0.3558 -0.2653
vn 0.6378 0.5185 -0.5695
vn 0.5302 -0.5278 -0.6635
vn 0.4734 -0.2473 0.8454
vn 0.4877 -0.2568 0.8344
vn 0.4380 -0.2607 0.8603
vn 0.6725 -0.3063 0.6737
vn 0.9218 -0.3260 0.2099
vn 0.8754 -0.4281 -0.2245
vn 0.6435 -0.4919 -0.5864
vn 0.4048 -0.4162 -0.8142
vn 0.4564 -0.2441 0.8556
vn 0.4603 -0.2485 0.8522
vn 0.4600 -0.2569 0.8499
vn 0.6768 -0.2526 0.6915
vn 0.9455 -0.3199 0.0603
vn 0.8460 -0.3938 -0.3594
vn 0.4814 -0.3789 -0.7903
vn 0.3227 -0.3434 -0.8820
usemtl None
s 1
f 2//1 1//2 9//3 10//4
f 3//5 2//1 10//4 11//6
f 4//7 3//5 11//6 12//8
f 5//9 4//7 12//8 13//10
f 6//11 5//9 13//10 14//12
f 7//13 6//11 14//12 15//14
f 8//15 7//13 15//14 16//16
f 10//4 9//3 17//17 18//18
f 11//6 10//4 18//18 19//19
f 12//8 11//6 19//19 20//20
f 13//10 12//8 20//20 21//21
f 14//12 13//10 21//21 22//22
f 15//14 14//12 22//22 23//23
f 16//16 15//14 23//23 24//24
f 18//18 17//17 25//25 26//26
f 19//19 18//18 26//26 27//27
f 20//20 19//19 27//27 28//28
f 21//21 20//20 28//28 29//29
f 22//22 21//21 29//29 30//30
f 23//23 22//22 30//30 31//31
f 24//24 23//23 31//31 32//32
f 26//26 25//25 33//33 34//34
f 27//27 26//26 34//34 35//35
f 28//28 27//27 35//35 36//36
f 29//29 28//28 36//36 37//37
f 30//30 29//29 37//37 38//38
f 31//31 30//30 38//38 39//39
f 32//32 31//31 39//39 40//40
f 34//34 33//33 41//41 42//42
f 35//35 34//34 42//42 43//43
f 36//36 35//35 43//43 44//44
f 37//37 36//36 44//44 45//45
f 38//38 37//37 45//45 46//46
f 39//39 38//38 46//46 47//47
f 40//40 39//39 47//47 48//48
f 42//42 41//41 49//49 50//50
f 43//43 42//42 50//50 51//51
f 44//44 43//43 51//51 52//52
f 45//45 44//44 52//52 53//53
f 46//46 45//45 53//53 54//54
f 47//47 46//46 54//54 55//55
f 48//48 47//47 55//55 56//56
f 50//50 49//49 57//57 58//58
f 51//51 50//50 58//58 59//59
f 52//52 51//51 59//59 60//60
f 53//53 52//52 60//60 61//61
f 54//54 53//53 61//61 62//62
f 55//55 54//54 62//62 63//63
f 56//56 55//55 63//63 64//64
