# Blender v2.79 (sub 0) OBJ File: 'circlebox.blend'
# www.blender.org
mtllib percent.mtl
o Cylinder
v 1.499973 -0.080000 0.008961
v 1.499973 0.080000 0.008961
v 1.499331 -0.080000 0.044790
v 1.499331 0.080000 0.044790
v 1.497833 -0.080000 0.080594
v 1.497833 0.080000 0.080594
v 1.495481 -0.080000 0.116351
v 1.495481 0.080000 0.116351
v 1.492274 -0.080000 0.152042
v 1.492274 0.080000 0.152042
v 1.488217 -0.080000 0.187647
v 1.488217 0.080000 0.187647
v 1.483309 -0.080000 0.223144
v 1.483309 0.080000 0.223144
v 1.477556 -0.080000 0.258514
v 1.477556 0.080000 0.258514
v 1.470958 -0.080000 0.293736
v 1.470958 0.080000 0.293736
v 1.463522 -0.080000 0.328791
v 1.463522 0.080000 0.328791
v 0.992917 0.080000 0.173721
v 0.992917 -0.080000 0.173721
v 0.988484 0.080000 0.197391
v 0.988484 -0.080000 0.197391
v 0.983487 0.080000 0.220948
v 0.983487 -0.080000 0.220948
v 1.007982 0.080000 0.006022
v 1.007982 -0.080000 0.006022
v 1.006544 0.080000 0.054159
v 1.006544 -0.080000 0.054159
v 1.007551 0.080000 0.030099
v 1.007551 -0.080000 0.030099
v 1.004963 0.080000 0.078188
v 1.004963 -0.080000 0.078188
v 1.000082 0.080000 0.126099
v 1.000082 -0.080000 0.126099
v 1.002808 0.080000 0.102172
v 1.002808 -0.080000 0.102172
v 0.996784 0.080000 0.149953
v 0.996784 -0.080000 0.149953
v 1.499936 -0.080000 0.002802
v 1.499936 0.080000 0.002802
v 1.007963 -0.080000 0.002802
v 1.007963 0.080000 0.002802
v 1.007963 0.058609 0.002802
v 1.460291 -0.080000 0.342409
v 1.460291 0.080000 0.342409
v 0.981297 -0.080000 0.230178
v 0.981297 0.080000 0.230178
vn 0.9998 0.0000 0.0179
vn 0.9991 0.0000 0.0418
vn 0.9978 0.0000 0.0657
vn 0.9960 0.0000 0.0895
vn 0.9936 0.0000 0.1132
vn 0.9906 0.0000 0.1369
vn 0.9870 0.0000 0.1606
vn 0.9829 0.0000 0.1841
vn 0.9782 0.0000 0.2075
vn 0.9730 0.0000 0.2308
vn -0.9870 0.0000 -0.1606
vn -0.9978 0.0000 -0.0657
vn -0.9998 0.0000 -0.0179
vn -0.9906 0.0000 -0.1369
vn -0.9936 0.0000 -0.1132
vn -0.9960 0.0000 -0.0895
vn -0.9782 0.0000 -0.2075
vn -1.0000 0.0000 0.0060
vn -0.0000 1.0000 -0.0000
vn -0.9991 0.0000 -0.0418
vn -0.9829 0.0000 -0.1841
vn 0.0000 0.0000 -1.0000
vn 1.0000 0.0000 -0.0060
vn -0.0000 -1.0000 0.0000
vn -0.9730 0.0000 -0.2308
vn -0.2281 0.0000 0.9736
usemtl Material.001
s off
f 1//1 2//1 4//1 3//1
f 3//2 4//2 6//2 5//2
f 5//3 6//3 8//3 7//3
f 7//4 8//4 10//4 9//4
f 9//5 10//5 12//5 11//5
f 11//6 12//6 14//6 13//6
f 13//7 14//7 16//7 15//7
f 15//8 16//8 18//8 17//8
f 17//9 18//9 20//9 19//9
f 19//10 20//10 47//10 46//10
f 22//11 21//11 39//11 40//11
f 34//12 33//12 29//12 30//12
f 32//13 31//13 27//13 28//13
f 40//14 39//14 35//14 36//14
f 36//15 35//15 37//15 38//15
f 38//16 37//16 33//16 34//16
f 26//17 25//17 23//17 24//17
f 28//18 27//18 44//18 45//18 43//18
f 2//19 27//19 31//19 29//19 33//19 37//19 35//19 39//19 21//19 23//19 25//19 49//19 47//19 20//19 18//19 16//19 14//19 12//19 10//19 8//19 6//19 4//19
f 30//20 29//20 31//20 32//20
f 24//21 23//21 21//21 22//21
f 42//19 44//19 27//19 2//19
f 44//22 42//22 41//22 43//22 45//22
f 41//23 42//23 2//23 1//23
f 43//24 41//24 1//24 28//24
f 48//25 49//25 25//25 26//25
f 47//26 49//26 48//26 46//26
f 46//24 48//24 26//24 24//24 22//24 40//24 36//24 38//24 34//24 30//24 32//24 28//24 1//24 3//24 5//24 7//24 9//24 11//24 13//24 15//24 17//24 19//24
