# Blender v2.79 (sub 0) OBJ File: 'pointer.blend'
# www.blender.org
mtllib pointer.mtl
o Cylinder
v -0.001645 -0.150000 0.150000
v -0.001645 -0.150000 -0.150000
v -0.001645 0.150000 -0.150000
v 0.000581 -0.150000 -0.150000
v -0.937570 -0.010000 0.347795
v -0.937570 0.010000 0.347795
v -0.943178 -0.010000 0.332287
v -0.943178 0.010000 0.332287
v -0.948530 -0.010000 0.316688
v -0.948530 0.010000 0.316688
v -0.953623 -0.010000 0.301003
v -0.953623 0.010000 0.301003
v -0.111258 0.010000 0.037659
v -0.111257 -0.010000 0.037658
v -0.122896 0.009864 0.040531
v -0.125115 0.010000 0.041267
v -0.956780 0.010000 0.290707
v -0.958245 0.000000 0.285929
v -0.122248 0.009864 0.042446
v -0.124458 0.010000 0.043208
v -0.936660 0.010000 0.350188
v -0.934884 0.000000 0.354858
v -0.122247 -0.009864 0.042446
v -0.124457 -0.010000 0.043208
v -0.936660 -0.010000 0.350188
v -0.122895 -0.009864 0.040531
v -0.125114 -0.010000 0.041267
v -0.956780 -0.010000 0.290707
v 0.000581 -0.000000 -0.001649
v -0.001645 -0.002443 0.000292
v -0.001645 -0.002669 0.000557
v -0.001645 -0.002443 0.000292
v -0.001645 -0.002453 0.000822
v -0.001645 -0.000179 0.002037
v -0.001645 -0.002453 0.000822
v -0.001645 -0.000000 0.002132
v -0.001645 0.002443 0.000292
v -0.001645 -0.000000 -0.000982
v -0.001645 0.002443 0.000292
v -0.001645 0.002459 0.000312
v -0.001645 0.002669 0.000557
v -0.001645 0.002452 0.000822
v -0.001645 0.002452 0.000822
vn -0.9404 0.0000 0.3401
vn -0.9459 0.0000 0.3245
vn -0.9511 0.0000 0.3089
vn -0.9561 0.0000 0.2931
vn 0.2569 0.7488 0.6110
vn -0.1670 -0.7488 -0.6414
vn -0.0000 -1.0000 -0.0000
vn 0.3163 -0.4470 0.8368
vn -0.9347 0.0000 0.3555
vn -0.2570 0.4470 -0.8568
vn 0.0000 1.0000 -0.0000
vn 0.2569 -0.7488 0.6110
vn 0.3163 0.4470 0.8368
vn -0.1670 0.7488 -0.6414
vn -0.2570 -0.4470 -0.8568
usemtl Material.001
s off
f 5//1 6//1 8//1 7//1
f 7//2 8//2 10//2 9//2
f 9//3 10//3 12//3 11//3
f 11//4 12//4 17//4 18//4 28//4
f 13//5 20//5 19//5 43//5 41//5
f 14//6 27//6 26//6 32//6 31//6
f 28//7 27//7 14//7 24//7 25//7 5//7 7//7 9//7 11//7
f 22//8 25//8 24//8 23//8 33//8 34//8 36//8
f 25//9 22//9 21//9 6//9 5//9
f 18//10 17//10 16//10 15//10 37//10 38//10
f 21//11 20//11 13//11 16//11 17//11 12//11 10//11 8//11 6//11
f 31//12 35//12 23//12 24//12 14//12
f 36//13 42//13 19//13 20//13 21//13 22//13
f 41//14 40//14 39//14 15//14 16//14 13//14
f 38//15 30//15 26//15 27//15 28//15 18//15
l 29 4
l 36 1
l 42 40
l 35 34
l 32 2
l 39 3
l 38 2
