# Blender v2.79 (sub 0) OBJ File: 'untitled.blend'
# www.blender.org
mtllib body.mtl
o Cone.002
v 0.000000 0.240734 -1.000000
v 0.000000 2.240734 0.000000
v 0.951057 0.240734 -0.309017
v 0.587785 0.240734 0.809017
v -0.587785 0.240734 0.809017
v -0.951056 0.240734 -0.309017
vn 0.5449 0.3750 -0.7500
vn 0.8817 0.3750 0.2865
vn 0.0000 0.3750 0.9270
vn -0.8817 0.3750 0.2865
vn -0.5449 0.3750 -0.7500
vn 0.0000 -1.0000 -0.0000
usemtl Material
s 1
f 1//1 2//1 3//1
f 3//2 2//2 4//2
f 4//3 2//3 5//3
f 5//4 2//4 6//4
f 6//5 2//5 1//5
f 1//6 3//6 4//6 5//6 6//6
